<svg width="250" height="57" viewBox="0 0 250 57" fill="none">
  <path d="M37.916 37.4081C42.9955 37.4081 47.1133 33.2903 47.1133 28.2107C47.1133 23.1312 42.9955 19.0134 37.916 19.0134C32.8365 19.0134 28.7187 23.1312 28.7187 28.2107C28.7187 33.2903 32.8365 37.4081 37.916 37.4081Z" fill="white"></path>
  <path d="M35.2794 0.128162L5.5414 16.0702C5.23482 16.2541 4.98956 16.5607 4.92825 16.8673L0.32959 37.4079C0.268275 37.7145 0.390906 37.9598 0.636167 38.0824L39.5101 56.4157C39.8167 56.5383 40.1846 56.5383 40.5525 56.4157L65.3852 45.1337C65.7531 44.9497 65.9984 44.6432 66.0597 44.2753L75.257 3.07129C75.3183 2.76472 75.1344 2.39684 74.7665 2.33552C74.7052 2.33552 74.7052 2.33552 74.6439 2.33552L35.8312 0.066843C35.7086 -0.0557878 35.4633 0.00553133 35.2794 0.128162ZM39.8167 54.8215L4.3764 38.1437H17.0074L46.6227 42.3745L39.8167 54.8215ZM48.2169 42.5584L62.81 44.6432L41.8401 54.2084L48.2169 42.5584ZM18.2337 36.7948L29.4544 14.7212L64.0363 10.7357L47.4198 40.9642L18.2337 36.7948ZM65.0787 9.14152L30.1902 13.1883L36.1378 1.47709L72.4365 3.62313L65.0787 9.14152ZM28.4734 13.3723L9.46558 15.5796L34.0531 2.45814L28.4734 13.3723ZM6.27718 17.4191L27.6763 14.9665L16.6395 36.6722H1.9851L6.27718 17.4191ZM64.7721 43.4782L48.9527 41.2095L65.9371 10.3678L73.4176 4.78814L64.7721 43.4782Z" fill="white"></path>
  <path d="M98.8021 32.6252H108.919V37.4078H92.9158V12.0846H98.8021V32.6252ZM112.108 37.4078H117.626V19.0745H112.108V37.4078ZM114.867 10.2451C113.027 10.2451 111.494 11.778 111.494 13.6175C111.494 15.4569 113.027 16.9898 114.867 16.9898C116.706 16.9898 118.239 15.4569 118.239 13.6175C118.239 11.778 116.706 10.2451 114.867 10.2451ZM134.917 19.0132H140.067V35.7523C140.067 41.8839 136.45 45.6854 130.625 45.6854C125.29 45.6854 121.611 42.8036 121.55 38.2662L127.069 38.0823C127.13 39.8605 128.601 41.2707 130.441 41.2094H130.502C133.139 41.2094 134.61 39.4926 134.61 36.4268V33.545C133.813 35.0779 132.096 36.3042 129.521 36.3042C124.555 36.3042 120.753 32.6252 120.753 27.3521C120.753 22.3242 124.432 18.4001 129.705 18.4001C132.035 18.4001 134.242 19.749 135.04 21.5271V19.0132H134.917ZM134.856 27.4748C134.856 25.0835 132.893 23.1214 130.502 23.1214C128.111 23.1214 126.149 25.0835 126.149 27.4748C126.149 29.8661 128.111 31.8281 130.502 31.8281C132.893 31.8281 134.856 29.8661 134.856 27.4748ZM154.293 18.6453C152.024 18.584 149.939 19.9329 149.081 22.079V12.0846H143.562V37.4078H149.081V27.2908C149.081 24.7155 150.307 23.1827 152.392 23.1827C154.477 23.1827 155.642 24.5929 155.642 26.9842V37.4078H161.16V26.1258C161.16 21.6498 158.401 18.7066 154.293 18.6453ZM171.338 14.7211H165.881V19.0745H162.815V23.4279H165.881V30.4792C165.881 35.1392 168.702 37.4078 172.381 37.4078H175.078L175.017 32.7479H173.791C172.135 32.7479 171.338 31.8895 171.338 30.2339V23.3666H175.201V19.0132H171.338V14.7211ZM203.529 14.7211H198.072V19.0745H195.006V23.4279H198.072V30.4792C198.072 35.1392 200.892 37.4078 204.571 37.4078H207.269L207.208 32.7479H205.981C204.326 32.7479 203.529 31.8895 203.529 30.2339V23.3666H207.392V19.0132H203.529V14.7211ZM249.883 28.2105C249.883 33.8515 246.266 37.7757 241.054 37.7757C238.908 37.837 236.946 36.7947 235.719 35.0165V44.2139H230.201V19.0745H235.719V21.6498C236.639 19.8716 238.847 18.7066 241.054 18.7066C246.327 18.7066 249.883 22.5695 249.883 28.2105ZM244.304 28.2105C244.304 25.2674 242.464 23.1827 239.889 23.1827C237.314 23.1827 235.413 25.2674 235.413 28.2105C235.413 31.1537 237.252 33.1771 239.889 33.1771C242.525 33.1771 244.304 31.215 244.304 28.2105ZM227.81 28.0266C227.81 28.5784 227.748 29.1916 227.687 29.7434H214.811V29.8047C214.872 32.0121 216.65 33.7289 218.858 33.7289C220.697 33.7289 221.923 32.9931 222.537 31.5216L227.197 32.38C226.399 35.691 223.088 37.9597 218.796 37.9597C213.217 37.9597 209.231 33.9742 209.231 28.2718C209.231 22.5695 213.094 18.5227 218.612 18.5227C224.008 18.5227 227.81 22.3856 227.81 28.0266ZM222.353 26.3097C222.353 26.2484 222.353 26.1258 222.353 26.0645C222.23 24.0411 220.575 22.5082 218.551 22.6308H218.49C216.466 22.6308 214.811 24.2863 214.811 26.3097H222.353ZM187.28 26.0032L184.828 25.6353C183.724 25.4513 183.111 24.8995 183.111 24.1024C183.111 23.06 184.092 22.2629 185.441 22.2629C186.912 22.2016 188.2 23.3053 188.323 24.7769L193.289 24.6542C193.105 20.9753 189.978 18.4001 185.441 18.4001C180.903 18.4001 177.838 21.0366 177.838 24.7156C177.838 27.904 179.677 29.8047 183.663 30.4179L186.115 30.7858C187.709 31.031 188.507 31.4602 188.507 32.5639C188.507 33.6676 187.464 34.2194 185.87 34.2194C183.969 34.2194 182.743 33.2384 182.62 31.7055L177.531 31.8281C177.654 35.5071 181.087 38.0823 185.87 38.0823C190.653 38.0823 193.841 35.5684 193.841 31.8895C193.841 28.701 191.572 26.6163 187.28 26.0032Z" fill="white"></path>
</svg>