<svg width="32" height="32" viewBox="0 0 32 32" fill="none"
  xmlns="http://www.w3.org/2000/svg">
  <path d="M16.2076 20.6307C18.2619 20.6307 19.9272 18.9653 19.9272 16.9109C19.9272 14.8566 18.2619 13.1913 16.2076 13.1913C14.1533 13.1913 12.4879 14.8566 12.4879 16.9109C12.4879 18.9653 14.1533 20.6307 16.2076 20.6307Z" fill="#039C49"/>
  <path d="M15.1411 5.55342L3.11413 12.0009C2.99014 12.0752 2.89095 12.1992 2.86616 12.3232L1.00632 20.6305C0.981522 20.7545 1.03112 20.8537 1.13031 20.9033L16.8521 28.3178C16.9761 28.3674 17.1249 28.3674 17.2737 28.3178L27.3168 23.755C27.4655 23.6806 27.5648 23.5566 27.5895 23.4078L31.3092 6.74371C31.334 6.61972 31.2596 6.47094 31.1108 6.44614C31.086 6.44614 31.086 6.44614 31.0613 6.44614L15.3642 5.52862C15.3147 5.47902 15.2154 5.50382 15.1411 5.55342ZM16.9761 27.673L2.64297 20.928H7.75133L19.7286 22.6391L16.9761 27.673ZM20.3734 22.7135L26.2753 23.5566L17.7944 27.4251L20.3734 22.7135ZM8.24728 20.3825L12.7853 11.4553L26.7712 9.84343L20.051 22.0687L8.24728 20.3825ZM27.1928 9.19869L13.0828 10.8353L15.4882 6.09897L30.1685 6.96689L27.1928 9.19869ZM12.3885 10.9097L4.70119 11.8024L14.6451 6.49573L12.3885 10.9097ZM3.4117 12.5464L12.0661 11.5545L7.60254 20.3329H1.67586L3.4117 12.5464ZM27.0688 23.0855L20.671 22.1679L27.54 9.69464L30.5653 7.43805L27.0688 23.0855Z" fill="#121C21"/>

</svg>
